<?xml version="1.0" encoding="utf-8"?>
<!-- Generator: Adobe Illustrator 22.0.1, SVG Export Plug-In . SVG Version: 6.00 Build 0)  -->
<svg version="1.1" id="Layer_1" xmlns="http://www.w3.org/2000/svg" xmlns:xlink="http://www.w3.org/1999/xlink" x="0px" y="0px"
	 viewBox="0 0 258.3 258.8" style="enable-background:new 0 0 258.3 258.8;" xml:space="preserve">
<g id="XMLID_138_">
	<path id="XMLID_142_" d="M252,44.2c-3.3-8.5-7.7-15.7-14.9-22.9S222.7,9.7,214.2,6.4c-8.2-3.2-17.7-5.4-31.4-6
		c-13.8-0.6-18.2-0.8-53.4-0.8S89.8-0.2,76,0.4s-23.2,2.8-31.4,6c-8.5,3.3-15.7,7.7-22.9,14.9S10.1,35.7,6.8,44.2
		c-3.2,8.2-5.4,17.7-6,31.4C0.2,89.4,0,93.9,0,129s0.1,39.6,0.8,53.4c0.6,13.8,2.8,23.2,6,31.4c3.3,8.5,7.7,15.7,14.9,22.9
		s14.4,11.6,22.9,14.9c8.2,3.2,17.7,5.4,31.4,6c13.8,0.6,18.2,0.8,53.4,0.8s39.6-0.1,53.4-0.8c13.8-0.6,23.2-2.8,31.4-6
		c8.5-3.3,15.7-7.7,22.9-14.9s11.6-14.4,14.9-22.9c3.2-8.2,5.4-17.7,6-31.4c0.6-13.8,0.8-18.2,0.8-53.4s-0.1-39.6-0.8-53.4
		C257.4,61.8,255.2,52.4,252,44.2z M234.7,181.3c-0.6,12.6-2.7,19.5-4.5,24c-2.3,6-5.2,10.4-9.7,14.9s-8.8,7.3-14.9,9.7
		c-4.6,1.8-11.4,3.9-24,4.5c-13.7,0.6-17.7,0.8-52.3,0.8s-38.7-0.1-52.3-0.8c-12.6-0.6-19.5-2.7-24-4.5c-6-2.3-10.4-5.2-14.9-9.7
		s-7.3-8.8-9.7-14.9c-1.8-4.6-3.9-11.4-4.5-24c-0.6-13.7-0.8-17.8-0.8-52.3s0.1-38.7,0.8-52.3c0.6-12.6,2.7-19.5,4.5-24
		c2.3-6,5.2-10.4,9.7-14.9s8.8-7.3,14.9-9.7c4.6-1.8,11.4-3.9,24-4.5c13.7-0.6,17.8-0.8,52.3-0.8s38.7,0.1,52.3,0.8
		c12.6,0.6,19.5,2.7,24,4.5c6,2.3,10.4,5.2,14.9,9.7s7.3,8.8,9.7,14.9c1.8,4.6,3.9,11.4,4.5,24c0.6,13.7,0.8,17.8,0.8,52.3
		S235.3,167.8,234.7,181.3z"/>
	<path id="XMLID_145_" d="M129.3,62.5c-36.7,0-66.5,29.8-66.5,66.5s29.8,66.5,66.5,66.5s66.5-29.8,66.5-66.5S166,62.5,129.3,62.5z
		 M129.3,172.2c-23.8,0-43.2-19.3-43.2-43.2c0-23.8,19.3-43.2,43.2-43.2s43.2,19.3,43.2,43.2C172.5,152.8,153.1,172.2,129.3,172.2z"
		/>
	<circle id="XMLID_143_" cx="198.4" cy="59.9" r="15.5"/>
</g>
</svg>
