<?xml version="1.0" encoding="utf-8"?>
<!-- Generator: Adobe Illustrator 19.2.1, SVG Export Plug-In . SVG Version: 6.00 Build 0)  -->
<svg version="1.1" id="Layer_1" xmlns="http://www.w3.org/2000/svg" xmlns:xlink="http://www.w3.org/1999/xlink" x="0px" y="0px"
	 viewBox="0 0 223.9 53.53" style="enable-background:new 0 0 223.9 53.53;" xml:space="preserve">
<style type="text/css">
	.st0{fill:none;}
	.st1{fill:#FF6D29;}
	.st2{fill:#1AFF8B;}
	.st3{fill:#363636;}
</style>
<g>
	<polygon class="st0" points="64.29,12.41 60.77,13.68 58.91,16.92 59.55,20.61 62.42,23.01 66.16,23.01 69.02,20.6 69.67,16.92 
		67.8,13.68 	"/>
	<polygon class="st0" points="203.55,41.44 207.07,40.16 208.94,36.92 208.29,33.24 205.42,30.84 201.68,30.84 198.82,33.24 
		198.17,36.92 200.04,40.16 	"/>
	<polygon class="st0" points="98.67,41.44 102.19,40.16 104.06,36.92 103.41,33.24 100.54,30.84 96.8,30.84 93.94,33.24 
		93.29,36.92 95.16,40.16 	"/>
	<polygon class="st0" points="17.29,12.41 13.78,13.68 11.91,16.92 12.56,20.6 15.42,23.01 19.16,23.01 22.02,20.61 22.67,16.92 
		20.8,13.68 	"/>
	<polygon class="st1" points="69.67,50.7 78.68,50.7 67.94,34.37 59.04,34.37 	"/>
	<polygon class="st1" points="34.58,14.82 32.5,26.65 27.27,31.04 27.27,34.68 23.21,40.27 16.65,42.4 6.31,39 3.56,47.05 
		6.16,47.94 16.65,51.35 28.47,47.5 35.78,37.45 35.78,3.15 27.27,3.15 27.27,3.95 28.58,4.42 	"/>
	<polygon class="st1" points="47,14.82 53,4.42 54.31,3.95 54.31,3.22 45.8,3.22 45.8,50.7 54.31,50.7 54.31,31.04 49.08,26.65 	"/>
	<polygon class="st1" points="115.96,39.02 109.96,49.42 108.51,49.95 108.51,50.7 117.02,50.7 117.02,16 109.71,5.94 97.89,2.1 
		88.33,5.21 90.96,13.3 97.89,11.05 104.45,13.18 108.51,18.77 108.51,22.69 113.88,27.19 	"/>
	<polygon class="st1" points="158.93,15.74 160.85,13.02 164.45,11.53 168.54,13.02 170.93,17.15 170.93,50.58 179.53,50.58 
		179.53,15.03 174.36,6.08 164.27,2.41 155.31,6.09 154.66,7.01 158.93,14.42 	"/>
	<polygon class="st2" points="137.63,13.02 141.81,11.5 145.99,13.02 148.42,17.23 148.42,50.58 156.93,50.58 156.93,14.95 
		151.81,6.08 141.81,2.44 137.54,4 137.54,13.16 	"/>
	<polygon class="st3" points="125.02,13.83 125.03,13.84 125.03,13.81 	"/>
	<path class="st2" d="M30.65,25.59l1.83-10.39l-5.28-9.14l-9.92-3.61L7.37,6.05L2.1,15.19l1.83,10.39l8.09,6.78h10.55L30.65,25.59z
		 M23.87,21.67l-3.98,3.34h-5.2l-3.98-3.34l-0.9-5.12l2.6-4.5l4.88-1.78l4.88,1.78l2.6,4.5L23.87,21.67z"/>
	<path class="st3" d="M25.27,1.15v2.07l-7.98-2.9L6.01,4.42L0,14.82l2.09,11.83l9.2,7.72H23.3l1.98-1.66v1.32l-3.29,4.53l-5.33,1.73
		l-7.18-2.33l-4.42-1.5L1.03,48.3l4.5,1.53l11.13,3.61l13.06-4.24l8.07-11.11V1.15H25.27z M22.57,32.37H12.01l-8.09-6.78L2.1,15.19
		l5.28-9.14l9.92-3.61l9.92,3.61l5.28,9.14l-1.83,10.39L22.57,32.37z M35.78,37.45L28.47,47.5l-11.82,3.84L6.16,47.94l-2.59-0.88
		L6.31,39l10.34,3.4l6.56-2.13l4.06-5.58v-3.65l5.23-4.39l2.08-11.83l-6-10.4l-1.31-0.48v-0.8h8.51V37.45z"/>
	<path class="st3" d="M17.29,10.28l-4.88,1.78l-2.6,4.5l0.9,5.12l3.98,3.34h5.2l3.98-3.34l0.9-5.12l-2.6-4.5L17.29,10.28z
		 M22.02,20.61l-2.86,2.4h-3.74l-2.86-2.4l-0.65-3.68l1.87-3.24l3.51-1.28l3.51,1.28l1.87,3.24L22.02,20.61z"/>
	<path class="st2" d="M83.48,38.65l5.28,9.14l9.92,3.61l9.92-3.61l5.28-9.14l-1.83-10.39l-8.09-6.78H93.4l-8.08,6.79L83.48,38.65z
		 M92.1,32.18l3.98-3.34h5.2l3.98,3.34l0.9,5.12l-2.6,4.5l-4.88,1.78l-4.88-1.78l-2.6-4.5L92.1,32.18z"/>
	<g>
		<polygon class="st0" points="97.89,2.1 88.33,5.21 90.96,13.3 97.89,11.05 104.45,13.18 108.51,18.77 108.51,22.69 113.88,27.19 
			115.96,39.02 109.96,49.42 108.51,49.95 108.51,50.7 117.02,50.7 117.02,16 109.71,5.94 		"/>
		<polygon class="st0" points="113.87,38.65 112.04,28.26 103.95,21.47 93.4,21.47 85.31,28.26 83.48,38.65 88.76,47.79 98.67,51.4 
			108.59,47.79 		"/>
		<path class="st3" d="M110.95,4.24L97.89,0L85.81,3.92l3.87,11.9l8.21-2.67l5.33,1.73l3.29,4.53v1.59l-1.83-1.54H92.67l-9.2,7.72
			l-2.09,11.83l6,10.4l11.29,4.11l7.83-2.85v2.02h12.51V15.35L110.95,4.24z M98.67,51.4l-9.92-3.61l-5.28-9.14l1.83-10.39l8.08-6.79
			h10.55l8.09,6.78l1.83,10.39l-5.28,9.14L98.67,51.4z M117.02,50.7h-8.51v-0.75l1.45-0.53l6.01-10.4l-2.09-11.83l-5.37-4.51v-3.92
			l-4.06-5.58l-6.56-2.13l-6.93,2.25l-2.63-8.09l9.56-3.11l11.82,3.84L117.02,16V50.7z"/>
	</g>
	<path class="st3" d="M98.67,43.57l4.88-1.78l2.6-4.5l-0.9-5.12l-3.98-3.34h-5.2l-3.98,3.34l-0.9,5.12l2.6,4.5L98.67,43.57z
		 M93.94,33.24l2.86-2.4h3.74l2.86,2.4l0.65,3.68l-1.87,3.24l-3.51,1.28l-3.51-1.28l-1.87-3.24L93.94,33.24z"/>
	<path class="st2" d="M74.21,6.05l-9.92-3.61l-9.92,3.61l-5.28,9.14l1.83,10.39l8.08,6.79h10h0.55l8.09-6.78l1.83-10.39L74.21,6.05z
		 M70.86,21.67l-3.98,3.34h-5.19l-3.98-3.34l-0.9-5.12l2.6-4.5l4.88-1.78l4.88,1.78l2.6,4.5L70.86,21.67z"/>
	<g>
		<path class="st3" d="M70.32,34.35l9.18-7.7l2.09-11.83l-6.01-10.4L64.29,0.31l-7.98,2.9v-2H43.8V52.7h12.51V33.85L68.59,52.7
			h13.79L70.32,34.35z M64.29,2.44l9.92,3.61l5.28,9.14l-1.83,10.39l-8.09,6.78h-0.55h-10l-8.08-6.79l-1.83-10.39l5.28-9.14
			L64.29,2.44z M54.31,50.7H45.8V3.22h8.51v0.73L53,4.42l-6,10.4l2.09,11.83l5.22,4.39V50.7z M59.04,34.37h8.9L78.68,50.7h-9
			L59.04,34.37z"/>
		<path class="st3" d="M61.69,25.01h5.19l3.98-3.34l0.9-5.12l-2.6-4.5l-4.88-1.78l-4.88,1.78l-2.6,4.5l0.9,5.12L61.69,25.01z
			 M60.77,13.68l3.51-1.28l3.51,1.28l1.87,3.24l-0.65,3.68l-2.86,2.4h-3.74l-2.86-2.4l-0.65-3.68L60.77,13.68z"/>
	</g>
	<rect x="127.03" y="3.2" class="st1" width="8.51" height="47.5"/>
	<g>
		<rect x="127.03" y="3.2" class="st0" width="8.51" height="47.5"/>
		<polygon class="st0" points="141.81,2.44 137.54,4 137.54,13.16 137.63,13.02 141.81,11.5 145.99,13.02 148.42,17.23 
			148.42,50.58 156.93,50.58 156.93,14.95 151.81,6.08 		"/>
		<polygon class="st0" points="164.27,2.41 155.31,6.09 154.66,7.01 158.93,14.42 158.93,15.74 160.85,13.02 164.45,11.53 
			168.54,13.02 170.93,17.15 170.93,50.58 179.53,50.58 179.53,15.03 174.36,6.08 		"/>
		<path class="st3" d="M175.73,4.46l-11.51-4.19l-10.22,4.2l-0.45,0.64l-0.37-0.65l-11.37-4.14l-4.27,1.55V1.2h-12.51v12.62v0.02
			V52.7h12.51V17.17l1.45-2.51l2.82-1.02l2.81,1.02l1.8,3.11v34.82h12.51V19.22l3.21-4.58l2.35-0.97l2.68,0.97l1.75,3.04v34.89h12.6
			V14.49L175.73,4.46z M135.54,50.7h-8.51V3.2h8.51V50.7z M156.93,50.58h-8.51V17.23l-2.43-4.21l-4.18-1.52l-4.18,1.52l-0.08,0.14V4
			l4.27-1.55l10,3.64l5.12,8.87V50.58z M179.53,50.58h-8.6V17.15l-2.38-4.13l-4.09-1.49l-3.61,1.48l-1.91,2.73v-1.33l-4.27-7.4
			l0.65-0.92l8.96-3.68l10.1,3.68l5.16,8.94V50.58z"/>
	</g>
	<polygon class="st1" points="220.84,39.02 214.84,49.42 213.39,49.95 213.39,50.7 221.9,50.7 221.9,16 214.59,5.94 202.77,2.1 
		193.21,5.21 195.84,13.3 202.77,11.05 209.33,13.18 213.39,18.77 213.39,22.69 218.76,27.19 	"/>
	<path class="st2" d="M188.36,38.65l5.28,9.14l9.92,3.61l9.92-3.61l5.28-9.14l-1.83-10.39l-8.09-6.78h-10.55l-8.08,6.79
		L188.36,38.65z M196.98,32.18l3.98-3.34h5.19l3.98,3.34l0.9,5.12l-2.6,4.5l-4.88,1.78l-4.88-1.78l-2.6-4.5L196.98,32.18z"/>
	<g>
		<polygon class="st0" points="205.42,30.84 201.68,30.84 198.82,33.24 198.17,36.92 200.04,40.16 203.55,41.44 207.07,40.16 
			208.94,36.92 208.29,33.24 		"/>
		<path class="st0" d="M218.75,38.65l-1.83-10.39l-8.09-6.78h-10.55l-8.08,6.79l-1.83,10.39l5.28,9.14l9.92,3.61l9.92-3.61
			L218.75,38.65z M208.44,41.79l-4.88,1.78l-4.88-1.78l-2.6-4.5l0.9-5.12l3.98-3.34h5.19l3.98,3.34l0.9,5.12L208.44,41.79z"/>
		<polygon class="st0" points="202.77,2.1 193.21,5.21 195.84,13.3 202.77,11.05 209.33,13.18 213.39,18.77 213.39,22.69 
			218.76,27.19 220.84,39.02 214.84,49.42 213.39,49.95 213.39,50.7 221.9,50.7 221.9,16 214.59,5.94 		"/>
		<path class="st3" d="M215.83,4.24L202.77,0l-12.08,3.92l3.87,11.9l8.21-2.67l5.33,1.73l3.29,4.53v1.59l-1.83-1.54h-12.01
			l-9.2,7.72l-2.09,11.83l6,10.4l11.29,4.11l7.83-2.85v2.02h12.51V15.35L215.83,4.24z M203.55,51.4l-9.92-3.61l-5.28-9.14
			l1.83-10.39l8.08-6.79h10.55l8.09,6.78l1.83,10.39l-5.28,9.14L203.55,51.4z M221.9,50.7h-8.51v-0.75l1.45-0.53l6.01-10.4
			l-2.09-11.83l-5.37-4.51v-3.92l-4.06-5.58l-6.56-2.13l-6.93,2.25l-2.63-8.09l9.56-3.11l11.82,3.84L221.9,16V50.7z"/>
		<path class="st3" d="M206.15,28.84h-5.19l-3.98,3.34l-0.9,5.12l2.6,4.5l4.88,1.78l4.88-1.78l2.6-4.5l-0.9-5.12L206.15,28.84z
			 M207.07,40.16l-3.51,1.28l-3.51-1.28l-1.87-3.24l0.65-3.68l2.86-2.4h3.74l2.86,2.4l0.65,3.68L207.07,40.16z"/>
	</g>
</g>
</svg>
